<svg aria-hidden="true" style="position:absolute;width:0;height:0" xmlns="http://www.w3.org/2000/svg" overflow="hidden"><defs><symbol id="icon-github" viewBox="0 0 32 32"><path d="M16 0C7.164 0 0 7.164 0 16s7.164 16 16 16 16-7.164 16-16S24.836 0 16 0zm2.957 24.821c-.472.092-.624-.199-.624-.448v-2.561c0-.871-.305-1.439-.641-1.728 2.08-.231 4.264-1.02 4.264-4.605 0-1.02-.364-1.852-.961-2.505.096-.236.416-1.185-.092-2.471 0 0-.783-.251-2.564.956A9.078 9.078 0 0016 11.147a9.015 9.015 0 00-2.337.313c-1.783-1.207-2.567-.956-2.567-.956-.505 1.285-.187 2.235-.089 2.469a3.61 3.61 0 00-.963 2.505c0 3.576 2.179 4.376 4.252 4.612-.267.233-.508.644-.592 1.248-.533.239-1.884.651-2.716-.776 0 0-.493-.896-1.431-.963 0 0-.911-.012-.064.568 0 0 .613.287 1.036 1.365 0 0 .54 1.667 3.137 1.101v1.737c0 .247-.151.536-.616.449a9.334 9.334 0 115.906 0z"/></symbol><symbol id="icon-telegram" viewBox="0 0 32 32"><path d="M21.232 23.339l2.625-12.375c.232-1.089-.393-1.518-1.107-1.25L7.321 15.66c-1.054.411-1.036 1-.179 1.268l3.946 1.232 9.161-5.768c.429-.286.821-.125.5.161l-7.411 6.696-.286 4.071c.411 0 .589-.179.804-.393l1.929-1.857 4 2.946c.732.411 1.25.196 1.446-.679zM32 16c0 8.839-7.161 16-16 16S0 24.839 0 16 7.161 0 16 0s16 7.161 16 16z"/></symbol><symbol id="icon-facebook" viewBox="0 0 32 32"><path d="M16 .64C7.517.64.64 7.517.64 16S7.517 31.36 16 31.36 31.36 24.483 31.36 16 24.483.64 16 .64zm3.638 10.614h-2.309c-.274 0-.578.36-.578.838v1.667h2.888l-.437 2.378h-2.451v7.138h-2.725v-7.138h-2.472v-2.378h2.472v-1.398c0-2.006 1.392-3.637 3.302-3.637h2.309v2.53z"/></symbol></defs></svg>