<svg aria-hidden="true" style="position: absolute; width: 0; height: 0; overflow: hidden;" version="1.1" xmlns="http://www.w3.org/2000/svg" xmlns:xlink="http://www.w3.org/1999/xlink">
<defs>
<symbol id="icon-github" viewBox="0 0 32 32">
<title>github</title>
<path d="M16 0c-8.836 0-16 7.164-16 16s7.164 16 16 16 16-7.164 16-16-7.164-16-16-16zM18.957 24.821c-0.472 0.092-0.624-0.199-0.624-0.448v-2.561c0-0.871-0.305-1.439-0.641-1.728 2.080-0.231 4.264-1.020 4.264-4.605 0-1.020-0.364-1.852-0.961-2.505 0.096-0.236 0.416-1.185-0.092-2.471 0 0-0.783-0.251-2.564 0.956-0.748-0.205-1.545-0.308-2.339-0.312-0.793 0.004-1.591 0.107-2.337 0.313-1.783-1.207-2.567-0.956-2.567-0.956-0.505 1.285-0.187 2.235-0.089 2.469-0.597 0.653-0.963 1.485-0.963 2.505 0 3.576 2.179 4.376 4.252 4.612-0.267 0.233-0.508 0.644-0.592 1.248-0.533 0.239-1.884 0.651-2.716-0.776 0 0-0.493-0.896-1.431-0.963 0 0-0.911-0.012-0.064 0.568 0 0 0.613 0.287 1.036 1.365 0 0 0.54 1.667 3.137 1.101v1.737c0 0.247-0.151 0.536-0.616 0.449-3.709-1.233-6.384-4.732-6.384-8.855 0-5.156 4.18-9.333 9.333-9.333s9.333 4.177 9.333 9.333c0 4.121-2.671 7.62-6.376 8.855z"></path>
</symbol>
<symbol id="icon-telegram" viewBox="0 0 32 32">
<title>telegram</title>
<path d="M21.232 23.339l2.625-12.375c0.232-1.089-0.393-1.518-1.107-1.25l-15.429 5.946c-1.054 0.411-1.036 1-0.179 1.268l3.946 1.232 9.161-5.768c0.429-0.286 0.821-0.125 0.5 0.161l-7.411 6.696-0.286 4.071c0.411 0 0.589-0.179 0.804-0.393l1.929-1.857 4 2.946c0.732 0.411 1.25 0.196 1.446-0.679zM32 16c0 8.839-7.161 16-16 16s-16-7.161-16-16 7.161-16 16-16 16 7.161 16 16z"></path>
</symbol>
<symbol id="icon-facebook" viewBox="0 0 32 32">
<title>facebook</title>
<path d="M16 0.64c-8.483 0-15.36 6.877-15.36 15.36s6.877 15.36 15.36 15.36 15.36-6.877 15.36-15.36-6.877-15.36-15.36-15.36zM19.638 11.254h-2.309c-0.274 0-0.578 0.36-0.578 0.838v1.667h2.888l-0.437 2.378h-2.451v7.138h-2.725v-7.138h-2.472v-2.378h2.472v-1.398c0-2.006 1.392-3.637 3.302-3.637h2.309v2.53z"></path>
</symbol>
</defs>
</svg>
